<svg xmlns="http://www.w3.org/2000/svg" xml:space="preserve" viewBox="0 0 100 100" id="startup">
  <path fill="black" d="M88 2H12C6.477 2 2 6.477 2 12v76c0 5.523 4.477 10 10 10h76c5.523 0 10-4.477 10-10V12c0-5.523-4.477-10-10-10z"></path>
  <g fill="#FFF" transform="translate(50 50) scale(1.25) translate(-50 -50)">
    <path d="M61.979 49.078v.002c.019.198.021.554.021.911 0 3.033-.701 10.655-1.356 15.87-.102.83-.231 1.826-.368 2.754L67.41 73.8c.17.13.38.19.59.19.15 0 .31-.03.45-.11.34-.17.55-.51.55-.89v-13c0-4.79-2.827-9.006-7.021-10.913zM38 49.991c0-.308.005-.613.022-.913A11.986 11.986 0 0 0 31 59.99v13a.997.997 0 0 0 1 1c.21 0 .41-.06.59-.19l7.13-5.183a88.421 88.421 0 0 1-.366-2.785C38.714 60.835 38 53.086 38 49.99zM50.75 26.331c-.38-.43-1.13-.43-1.51 0-.36.42-8.85 10.28-9.22 22.77-.02.29-.02.59-.02.89 0 2.96.7 10.6 1.34 15.61.24 2.06.49 3.69.68 4.6.1.46.51.79.98.79h14c.47 0 .88-.33.98-.79.19-.91.43-2.55.68-4.59.63-5.02 1.34-12.66 1.34-15.62 0-.3 0-.6-.02-.85-.38-12.53-8.87-22.39-9.23-22.81zM50 51.991c-2.76 0-5-2.24-5-5 0-2.75 2.24-5 5-5 2.75 0 5 2.25 5 5 0 2.76-2.25 5-5 5z"></path>
  </g>
</svg>
